<svg version="1" xmlns="http://www.w3.org/2000/svg" width="936" height="936" viewBox="0 0 702.000000 702.000000"><path d="M157.3 178.9c-3.5 1.5-6.6 3-6.9 3.4-.7.6 1 4.5 18.6 44.7 6.2 14 12.1 27.4 13.1 29.7l1.8 4.2 4.3-1.8c2.4-1.1 6-2.6 8-3.4l3.7-1.6-6.8-15.3c-3.7-8.4-11.5-26-17.2-39-5.7-13.1-10.8-23.8-11.4-23.8-.5 0-3.8 1.3-7.2 2.9zM229.7 177.7c-.4.3-.7 78.2-.7 173V523h66v-78.8c0-86.9-.1-84.8 6.3-94.4 3.8-5.8 12.1-11.3 19.1-12.9 3.2-.7 9.6-1 15.8-.7 8.4.4 11.4.9 16 3 6.3 2.9 12.8 8.9 15.6 14.5 4 7.9 4.2 11.7 4.2 91.8V523h65v-81.3c0-64.9-.3-83.3-1.5-91.7-5.5-40.3-24.2-65.1-56.2-74.2-6.6-1.9-10.2-2.3-23.3-2.2-14.2 0-16.2.2-23.5 2.7-13 4.3-24.8 13.8-33.4 26.6l-3.6 5.4-.5-65.4-.5-65.4-32.1-.3c-17.6-.1-32.3.1-32.7.5zM121.3 199.8c-3.4 2.6-6.2 5.1-6.3 5.5 0 .8 46.8 63.7 49.9 67 1.6 1.7 2 1.5 8.4-3.3 3.7-2.8 6.7-5.3 6.7-5.6 0-.8-51.3-68.4-51.9-68.3-.3 0-3.4 2.1-6.8 4.7zM92.4 227.7c-2.2 2.7-4.5 5.5-5.2 6.4-1 1.4 3.2 5.2 31.3 28.5 17.9 14.8 32.9 26.9 33.4 26.9.4 0 3.1-2.7 5.9-6l5.2-6-2.3-2.2c-4.2-4-62.9-52.3-63.7-52.3-.4 0-2.4 2.1-4.6 4.7zM68.1 265.5c-2 4.4-3 8-2.5 8.4 1.2 1.2 74.8 35.1 76 35.1 1.6 0 7.9-13.9 6.8-14.9-.7-.7-68.8-32.7-76-35.7-.5-.3-2.5 3-4.3 7.1zM571 274.4c-26.7 4.2-43.1 11.5-56.7 25.3-13.1 13.3-19.3 30-19.3 52.2 0 22.2 5 36.5 17 48.2 14.1 13.9 32.3 19.2 85 24.9 22.6 2.4 31.2 4 36.8 6.9 13 6.6 13.1 21.5.2 28.1-7.5 3.8-15.1 5.2-32.5 5.7-14.8.4-18.4.2-27.5-1.7-16.4-3.3-35.9-10.8-47.7-18.3-2.4-1.5-4.5-2.7-4.8-2.7-.2 0-8.7 10.2-18.7 22.7-10.1 12.5-19.1 23.8-20.1 25-1.8 2.3-1.8 2.3 5 6.7 29.4 19 65.4 28.6 107.3 28.7 28.7.1 45.6-3.3 65-12.8 10.1-5 12.6-6.8 20.1-14.2 9.4-9.5 14-17.2 18.1-30.1 2-6.7 2.3-9.4 2.3-25 0-13.9-.4-18.8-1.9-24-4.2-15-11.7-25.6-24.1-33.9-8.4-5.6-17.2-8.7-33.5-12-10.3-2-16.9-2.9-51.3-7.2-20.4-2.5-28.9-4.9-33.4-9.4-6.8-6.8-3-16.2 8.2-20.4 22.2-8.3 60.5-3.6 89.6 11l7.7 3.8 18.8-23c10.4-12.7 19-23.4 19.2-23.9.5-1.2-16-10.9-26.7-15.6-12.8-5.6-27-10.1-41.6-13.1-15-3-46.7-4-60.5-1.9zM56.6 298.2c-.8 2.2-3.5 15.2-3.3 15.4.3.3 82.1 17.4 83.2 17.4.9 0 5-16 4.3-16.5-.2-.1-18.3-3.9-40.3-8.4-22-4.5-40.8-8.5-41.8-8.7-.9-.3-1.9.1-2.1.8z"/><path d="M0 353v34h189v-68h-34v17h17v34H17v-34h17v-17H0v34z"/><path d="M51 344.5v8.5h87v-17H51v8.5zM51 412.5v8.5h87v-17H51v8.5zM51 446.5v8.5h87v-17H51v8.5zM51 480.5v8.5h87v-17H51v8.5zM51 514.5v8.5h87v-17H51v8.5z"/></svg>